<svg xmlns="http://www.w3.org/2000/svg" xmlns:xlink="http://www.w3.org/1999/xlink" width="48px" height="48px" viewBox="0 0 48 48" version="1.1">
<g id="surface1">
<path style=" stroke:none;fill-rule:nonzero;fill:rgb(0%,47.843137%,80.000001%);fill-opacity:1;" d="M 0 24 L 0 0 L 48 0 L 48 48 L 0 48 "/>
<path style=" stroke:none;fill-rule:nonzero;fill:rgb(100%,100%,100%);fill-opacity:1;" d="M 10.523438 24.085938 L 10.523438 26.039062 L 16.765625 26.039062 L 16.765625 43.800781 L 21.191406 43.800781 L 21.191406 26.039062 L 27.433594 26.039062 L 27.433594 24.121094 C 27.433594 23.039062 27.433594 22.164062 27.382812 22.140625 C 27.382812 22.105469 23.578125 22.09375 18.960938 22.09375 L 10.558594 22.128906 L 10.558594 24.097656 Z M 38.566406 22.078125 C 39.792969 22.367188 40.726562 22.921875 41.566406 23.796875 C 42.011719 24.277344 42.671875 25.117188 42.71875 25.332031 C 42.71875 25.402344 40.644531 26.808594 39.382812 27.589844 C 39.335938 27.625 39.144531 27.421875 38.953125 27.109375 C 38.328125 26.21875 37.691406 25.835938 36.695312 25.765625 C 35.257812 25.667969 34.296875 26.425781 34.296875 27.683594 C 34.296875 28.066406 34.367188 28.285156 34.511719 28.597656 C 34.835938 29.257812 35.4375 29.652344 37.296875 30.46875 C 40.726562 31.945312 42.214844 32.914062 43.117188 34.308594 C 44.136719 35.867188 44.363281 38.316406 43.679688 40.152344 C 42.910156 42.15625 41.039062 43.511719 38.363281 43.957031 C 37.523438 44.101562 35.605469 44.074219 34.703125 43.921875 C 32.785156 43.558594 30.949219 42.601562 29.820312 41.363281 C 29.375 40.882812 28.523438 39.601562 28.570312 39.515625 L 29.027344 39.226562 L 30.828125 38.183594 L 32.183594 37.390625 L 32.496094 37.8125 C 32.890625 38.4375 33.78125 39.277344 34.296875 39.5625 C 35.855469 40.367188 37.945312 40.261719 38.976562 39.324219 C 39.421875 38.914062 39.613281 38.484375 39.613281 37.882812 C 39.613281 37.332031 39.527344 37.078125 39.253906 36.660156 C 38.867188 36.132812 38.101562 35.699219 35.941406 34.738281 C 33.457031 33.683594 32.398438 33.011719 31.414062 31.980469 C 30.851562 31.355469 30.335938 30.382812 30.097656 29.578125 C 29.914062 28.882812 29.855469 27.179688 30.023438 26.496094 C 30.539062 24.097656 32.351562 22.414062 34.945312 21.9375 C 35.785156 21.769531 37.765625 21.839844 38.59375 22.054688 Z M 38.566406 22.078125 "/>
</g>
</svg>